<svg width="625" height="286" viewBox="0 0 625 286" fill="none" xmlns="http://www.w3.org/2000/svg">
<g clip-path="url(#clip0)">
<rect width="625" height="286"/>
<g filter="url(#filter0_d)">
<path d="M55 222.774C64.3333 222.441 98.5633 157.507 98.5633 157.507C98.5633 157.507 124 76.6411 121 56.274C120.49 52.8114 119.772 83.3726 124 79.7741C147.5 59.774 178.5 61.274 190.5 74.774C209.536 96.1896 189 137.274 134 143.818C91.1362 148.919 96.5 142.296 96.5 148.796C96.5 162.138 116.356 184.115 124 192.274C138.5 207.752 157.142 211.811 177 206.274C203.5 198.885 240.167 159.796 225.5 148.796C212.5 139.046 190.5 146.296 172.5 167.274C156.586 185.821 147 226.274 185.5 226.274C207.5 226.274 233 213.907 249.5 191.774C265.5 164.907 293 109.885 286.5 76.6411C284.705 67.4632 281.941 116.774 293 104.774C316.5 79.274 348.5 70.774 362.5 89.274C370.124 99.3481 370.819 120.315 350.5 135.796C330.181 151.277 294 159.007 289 157.507C284 156.007 326.601 142.674 340.5 159.796C360 183.818 344.968 210.5 325.5 220.796C283 243.274 267.926 220.688 246.5 194.796C232 177.274 257.044 218.8 279.5 226.274C303 234.096 312.5 228.774 329.121 218.296C345.742 207.818 372 183.081 383.5 174.796C397.381 164.796 406.33 157.507 422 157.507C428.5 157.507 443.984 171.622 429 196.796C416.5 217.796 386.935 235.989 374.5 226.274C358.5 213.774 375.5 174.796 411.5 159.796C439.046 148.319 445 182.003 414 213.848C438.5 200.348 438 201.274 465 177.774C486.151 159.365 492.181 153.469 491.5 159.796C485.876 212.062 470.42 229.205 442.5 226.274C428 224.752 455.5 229.701 470 226.274C484.5 222.848 493 212.774 500.5 202.774C508 192.774 513 182.274 518 163.796C523.724 142.642 514.703 176.274 511.619 184.274C508.535 192.274 524 171.318 537 165.296C550 159.274 559.395 162.504 562 173.296C565.495 187.774 549 212.774 541 220.296C529.562 231.051 545 225.296 554 220.296C563 215.296 563.5 214.274 570.5 208.274" stroke="#43888A" stroke-width="15"/>
</g>
</g>
<defs>
<filter id="filter0_d" x="52.8852" y="48.4989" width="534.496" height="201.012" filterUnits="userSpaceOnUse" color-interpolation-filters="sRGB">
<feFlood flood-opacity="0" result="BackgroundImageFix"/>
<feColorMatrix in="SourceAlpha" type="matrix" values="0 0 0 0 0 0 0 0 0 0 0 0 0 0 0 0 0 0 127 0"/>
<feOffset dx="6" dy="6"/>
<feGaussianBlur stdDeviation="3"/>
<feColorMatrix type="matrix" values="0 0 0 0 0 0 0 0 0 0 0 0 0 0 0 0 0 0 0.25 0"/>
<feBlend mode="normal" in2="BackgroundImageFix" result="effect1_dropShadow"/>
<feBlend mode="normal" in="SourceGraphic" in2="effect1_dropShadow" result="shape"/>
</filter>
<clipPath id="clip0">
<rect width="625" height="286" fill="white"/>
</clipPath>
</defs>
</svg>
