<svg width="536" height="202" viewBox="0 0 536 202" fill="none" xmlns="http://www.w3.org/2000/svg">
<g filter="url(#filter0_d)">
<path d="M3 174.774C12.3333 174.441 46.5633 109.507 46.5633 109.507C46.5633 109.507 72 28.6411 69 8.27405C68.49 4.8114 67.7717 35.3726 72 31.7741C95.5 11.774 126.5 13.274 138.5 26.774C157.536 48.1896 137 89.274 82 95.8184C39.1362 100.919 44.5 94.2962 44.5 100.796C44.5 114.138 64.3562 136.115 72 144.274C86.5 159.752 105.142 163.811 125 158.274C151.5 150.885 188.167 111.796 173.5 100.796C160.5 91.0463 138.5 98.2962 120.5 119.274C104.586 137.821 95 178.274 133.5 178.274C155.5 178.274 181 165.907 197.5 143.774C213.5 116.907 241 61.8848 234.5 28.6411C232.705 19.4632 229.941 68.774 241 56.774C264.5 31.274 296.5 22.774 310.5 41.274C318.124 51.3481 318.819 72.3154 298.5 87.7962C278.181 103.277 242 111.007 237 109.507C232 108.007 274.601 94.6737 288.5 111.796C308 135.818 292.968 162.5 273.5 172.796C231 195.274 215.926 172.688 194.5 146.796C180 129.274 205.044 170.8 227.5 178.274C251 186.096 260.5 180.774 277.121 170.296C293.742 159.818 320 135.081 331.5 126.796C345.381 116.796 354.33 109.507 370 109.507C376.5 109.507 391.984 123.622 377 148.796C364.5 169.796 334.935 187.989 322.5 178.274C306.5 165.774 323.5 126.796 359.5 111.796C387.046 100.319 393 134.003 362 165.848C386.5 152.348 386 153.274 413 129.774C434.151 111.365 440.181 105.469 439.5 111.796C433.876 164.062 418.42 181.205 390.5 178.274C376 176.752 403.5 181.701 418 178.274C432.5 174.848 441 164.774 448.5 154.774C456 144.774 461 134.274 466 115.796C471.724 94.6424 462.703 128.274 459.619 136.274C456.535 144.274 472 123.318 485 117.296C498 111.274 507.395 114.504 510 125.296C513.495 139.774 497 164.774 489 172.296C477.562 183.051 493 177.296 502 172.296C511 167.296 511.5 166.274 518.5 160.274" stroke="white" stroke-width="15"/>
</g>
<defs>
<filter id="filter0_d" x="0.885132" y="0.498878" width="534.496" height="201.012" filterUnits="userSpaceOnUse" color-interpolation-filters="sRGB">
<feFlood flood-opacity="0" result="BackgroundImageFix"/>
<feColorMatrix in="SourceAlpha" type="matrix" values="0 0 0 0 0 0 0 0 0 0 0 0 0 0 0 0 0 0 127 0"/>
<feOffset dx="6" dy="6"/>
<feGaussianBlur stdDeviation="3"/>
<feColorMatrix type="matrix" values="0 0 0 0 0 0 0 0 0 0 0 0 0 0 0 0 0 0 0.25 0"/>
<feBlend mode="normal" in2="BackgroundImageFix" result="effect1_dropShadow"/>
<feBlend mode="normal" in="SourceGraphic" in2="effect1_dropShadow" result="shape"/>
</filter>
</defs>
</svg>
